<!--?xml version="1.0" encoding="us-ascii" standalone="no"?--><svg xmlns="http://www.w3.org/2000/svg" xmlns:xlink="http://www.w3.org/1999/xlink" contentstyletype="text/css" height="415px" preserveAspectRatio="none" style="width:624px;height:415px;background:#FFFFFF;" version="1.1" viewBox="0 0 624 415" width="624px" zoomAndPan="magnify"><defs></defs><g><line style="stroke:#181818;stroke-width:0.5;stroke-dasharray:5.0,5.0;" x1="39" x2="39" y1="81.2969" y2="334.3594"></line><line style="stroke:#181818;stroke-width:0.5;stroke-dasharray:5.0,5.0;" x1="304.5" x2="304.5" y1="81.2969" y2="334.3594"></line><line style="stroke:#181818;stroke-width:0.5;stroke-dasharray:5.0,5.0;" x1="589" x2="589" y1="81.2969" y2="334.3594"></line><text fill="#000000" font-family="sans-serif" font-size="14" lengthAdjust="spacing" textLength="62" x="5" y="77.9951">Web App</text><ellipse cx="39" cy="13.5" fill="#E2E2F0" rx="8" ry="8" style="stroke:#181818;stroke-width:0.5;"></ellipse><path d="M39,21.5 L39,48.5 M26,29.5 L52,29.5 M39,48.5 L26,63.5 M39,48.5 L52,63.5 " fill="none" style="stroke:#181818;stroke-width:0.5;"></path><text fill="#000000" font-family="sans-serif" font-size="14" lengthAdjust="spacing" textLength="62" x="5" y="346.3545">Web App</text><ellipse cx="39" cy="358.1563" fill="#E2E2F0" rx="8" ry="8" style="stroke:#181818;stroke-width:0.5;"></ellipse><path d="M39,366.1563 L39,393.1563 M26,374.1563 L52,374.1563 M39,393.1563 L26,408.1563 M39,393.1563 L52,408.1563 " fill="none" style="stroke:#181818;stroke-width:0.5;"></path><rect fill="#E2E2F0" height="30.2969" rx="2.5" ry="2.5" style="stroke:#181818;stroke-width:0.5;" width="99" x="255.5" y="50"></rect><text fill="#000000" font-family="sans-serif" font-size="14" lengthAdjust="spacing" textLength="85" x="262.5" y="69.9951">GraphQL API</text><rect fill="#E2E2F0" height="30.2969" rx="2.5" ry="2.5" style="stroke:#181818;stroke-width:0.5;" width="99" x="255.5" y="333.3594"></rect><text fill="#000000" font-family="sans-serif" font-size="14" lengthAdjust="spacing" textLength="85" x="262.5" y="353.3545">GraphQL API</text><text fill="#000000" font-family="sans-serif" font-size="14" lengthAdjust="spacing" textLength="62" x="555" y="77.9951">Postgres</text><path d="M571,29 C571,19 589,19 589,19 C589,19 607,19 607,29 L607,55 C607,65 589,65 589,65 C589,65 571,65 571,55 L571,29 " fill="#E2E2F0" style="stroke:#181818;stroke-width:1.5;"></path><path d="M571,29 C571,39 589,39 589,39 C589,39 607,39 607,29 " fill="none" style="stroke:#181818;stroke-width:1.5;"></path><text fill="#000000" font-family="sans-serif" font-size="14" lengthAdjust="spacing" textLength="62" x="555" y="346.3545">Postgres</text><path d="M571,359.6563 C571,349.6563 589,349.6563 589,349.6563 C589,349.6563 607,349.6563 607,359.6563 L607,385.6563 C607,395.6563 589,395.6563 589,395.6563 C589,395.6563 571,395.6563 571,385.6563 L571,359.6563 " fill="#E2E2F0" style="stroke:#181818;stroke-width:1.5;"></path><path d="M571,359.6563 C571,369.6563 589,369.6563 589,369.6563 C589,369.6563 607,369.6563 607,359.6563 " fill="none" style="stroke:#181818;stroke-width:1.5;"></path><polygon fill="#181818" points="293,108.4297,303,112.4297,293,116.4297,297,112.4297" style="stroke:#181818;stroke-width:1.0;"></polygon><line style="stroke:#181818;stroke-width:1.0;" x1="39" x2="299" y1="112.4297" y2="112.4297"></line><text fill="#000000" font-family="sans-serif" font-size="13" lengthAdjust="spacing" textLength="202" x="46" y="107.3638">get Access Token using cookies</text><polygon fill="#181818" points="577,137.5625,587,141.5625,577,145.5625,581,141.5625" style="stroke:#181818;stroke-width:1.0;"></polygon><line style="stroke:#181818;stroke-width:1.0;" x1="305" x2="583" y1="141.5625" y2="141.5625"></line><text fill="#000000" font-family="sans-serif" font-size="13" lengthAdjust="spacing" textLength="211" x="312" y="136.4966">Token not revoked and user valid</text><polygon fill="#181818" points="316,166.6953,306,170.6953,316,174.6953,312,170.6953" style="stroke:#181818;stroke-width:1.0;"></polygon><line style="stroke:#181818;stroke-width:1.0;stroke-dasharray:2.0,2.0;" x1="310" x2="588" y1="170.6953" y2="170.6953"></line><text fill="#000000" font-family="sans-serif" font-size="13" lengthAdjust="spacing" textLength="63" x="322" y="165.6294">User data</text><polygon fill="#181818" points="50,195.8281,40,199.8281,50,203.8281,46,199.8281" style="stroke:#181818;stroke-width:1.0;"></polygon><line style="stroke:#181818;stroke-width:1.0;stroke-dasharray:2.0,2.0;" x1="44" x2="304" y1="199.8281" y2="199.8281"></line><text fill="#000000" font-family="sans-serif" font-size="13" lengthAdjust="spacing" textLength="118" x="56" y="194.7622">New Access Token</text><polygon fill="#181818" points="293,224.9609,303,228.9609,293,232.9609,297,228.9609" style="stroke:#181818;stroke-width:1.0;"></polygon><line style="stroke:#181818;stroke-width:1.0;" x1="39" x2="299" y1="228.9609" y2="228.9609"></line><text fill="#000000" font-family="sans-serif" font-size="13" lengthAdjust="spacing" textLength="242" x="46" y="223.895">Authorization: Bearer &lt;accesstoken&gt;</text><polygon fill="#181818" points="577,254.0938,587,258.0938,577,262.0938,581,258.0938" style="stroke:#181818;stroke-width:1.0;"></polygon><line style="stroke:#181818;stroke-width:1.0;" x1="305" x2="583" y1="258.0938" y2="258.0938"></line><text fill="#000000" font-family="sans-serif" font-size="13" lengthAdjust="spacing" textLength="260" x="312" y="253.0278">Using jwt to query data as jwt.claims.role</text><polygon fill="#181818" points="316,283.2266,306,287.2266,316,291.2266,312,287.2266" style="stroke:#181818;stroke-width:1.0;"></polygon><line style="stroke:#181818;stroke-width:1.0;" x1="310" x2="588" y1="287.2266" y2="287.2266"></line><text fill="#000000" font-family="sans-serif" font-size="13" lengthAdjust="spacing" textLength="76" x="322" y="282.1606">query result</text><polygon fill="#181818" points="50,312.3594,40,316.3594,50,320.3594,46,316.3594" style="stroke:#181818;stroke-width:1.0;"></polygon><line style="stroke:#181818;stroke-width:1.0;" x1="44" x2="304" y1="316.3594" y2="316.3594"></line><text fill="#000000" font-family="sans-serif" font-size="13" lengthAdjust="spacing" textLength="99" x="56" y="311.2935">processed data</text><!--SRC=[RP3DJiCm3CVlUGghz-q1AZIfN10IGaDYukobLXTMuk2uc-3fSL9QWU1Kr_dzFnBqoWBD2nsXIwa1p62pZIwXQF0XOLHexWJJwUa1klrzPUphUbGyOYPezfnr4ChrQFbnRZQ2pQxWqC902fttb3CyyvaYJ3d40JppEHXV86CNlGbcAhA2qCNc7Z3sfYA12uwXTokxMKCEvRHKc_ri_rsZXKUw_ih_Kx2RzCGIFb43nnPk2SNCRh1gj4Xs_xGyr5kyNXMKuNqY-QZvvIrikVKZXhUy5HxfHzybSkPjDOswUA-5at19jdiNmoy0]--></g></svg>